<mxfile host="app.diagrams.net" modified="2021-07-03T11:26:09.114Z" agent="5.0 (Windows)" etag="ed5JrU_8P6pmntjLZ_Uw" version="14.8.4" type="github">
  <diagram id="Y10TE8lIMmf4OvXZNULO" name="Page-1">
    <mxGraphModel dx="2249" dy="740" grid="1" gridSize="10" guides="1" tooltips="1" connect="1" arrows="1" fold="1" page="1" pageScale="1" pageWidth="827" pageHeight="1169" math="0" shadow="0">
      <root>
        <mxCell id="0" />
        <mxCell id="1" parent="0" />
        <mxCell id="j4cqbh6B3K3PZ06SUgVI-1" value="Classroom" style="swimlane;fontStyle=1;align=center;verticalAlign=top;childLayout=stackLayout;horizontal=1;startSize=26;horizontalStack=0;resizeParent=1;resizeParentMax=0;resizeLast=0;collapsible=1;marginBottom=0;" vertex="1" parent="1">
          <mxGeometry x="70" y="60" width="160" height="98" as="geometry" />
        </mxCell>
        <mxCell id="j4cqbh6B3K3PZ06SUgVI-2" value="- numtberSeats: int&#xa;" style="text;strokeColor=none;fillColor=none;align=left;verticalAlign=top;spacingLeft=4;spacingRight=4;overflow=hidden;rotatable=0;points=[[0,0.5],[1,0.5]];portConstraint=eastwest;" vertex="1" parent="j4cqbh6B3K3PZ06SUgVI-1">
          <mxGeometry y="26" width="160" height="64" as="geometry" />
        </mxCell>
        <mxCell id="j4cqbh6B3K3PZ06SUgVI-3" value="" style="line;strokeWidth=1;fillColor=none;align=left;verticalAlign=middle;spacingTop=-1;spacingLeft=3;spacingRight=3;rotatable=0;labelPosition=right;points=[];portConstraint=eastwest;" vertex="1" parent="j4cqbh6B3K3PZ06SUgVI-1">
          <mxGeometry y="90" width="160" height="8" as="geometry" />
        </mxCell>
        <mxCell id="j4cqbh6B3K3PZ06SUgVI-17" style="edgeStyle=none;rounded=0;orthogonalLoop=1;jettySize=auto;html=1;startArrow=none;startFill=0;endArrow=diamond;endFill=0;entryX=0.5;entryY=1.25;entryDx=0;entryDy=0;entryPerimeter=0;" edge="1" parent="1" source="j4cqbh6B3K3PZ06SUgVI-5" target="j4cqbh6B3K3PZ06SUgVI-11">
          <mxGeometry relative="1" as="geometry">
            <mxPoint x="150" y="354.0000000000001" as="targetPoint" />
          </mxGeometry>
        </mxCell>
        <mxCell id="j4cqbh6B3K3PZ06SUgVI-5" value="Office" style="swimlane;fontStyle=1;align=center;verticalAlign=top;childLayout=stackLayout;horizontal=1;startSize=26;horizontalStack=0;resizeParent=1;resizeParentMax=0;resizeLast=0;collapsible=1;marginBottom=0;" vertex="1" parent="1">
          <mxGeometry x="70" y="400" width="160" height="98" as="geometry" />
        </mxCell>
        <mxCell id="j4cqbh6B3K3PZ06SUgVI-6" value="- department_id: int" style="text;strokeColor=none;fillColor=none;align=left;verticalAlign=top;spacingLeft=4;spacingRight=4;overflow=hidden;rotatable=0;points=[[0,0.5],[1,0.5]];portConstraint=eastwest;" vertex="1" parent="j4cqbh6B3K3PZ06SUgVI-5">
          <mxGeometry y="26" width="160" height="64" as="geometry" />
        </mxCell>
        <mxCell id="j4cqbh6B3K3PZ06SUgVI-7" value="" style="line;strokeWidth=1;fillColor=none;align=left;verticalAlign=middle;spacingTop=-1;spacingLeft=3;spacingRight=3;rotatable=0;labelPosition=right;points=[];portConstraint=eastwest;" vertex="1" parent="j4cqbh6B3K3PZ06SUgVI-5">
          <mxGeometry y="90" width="160" height="8" as="geometry" />
        </mxCell>
        <mxCell id="j4cqbh6B3K3PZ06SUgVI-9" value="Department" style="swimlane;fontStyle=1;align=center;verticalAlign=top;childLayout=stackLayout;horizontal=1;startSize=26;horizontalStack=0;resizeParent=1;resizeParentMax=0;resizeLast=0;collapsible=1;marginBottom=0;" vertex="1" parent="1">
          <mxGeometry x="70" y="250" width="160" height="78" as="geometry" />
        </mxCell>
        <mxCell id="j4cqbh6B3K3PZ06SUgVI-10" value="- id: int&#xa;- name: String" style="text;strokeColor=none;fillColor=none;align=left;verticalAlign=top;spacingLeft=4;spacingRight=4;overflow=hidden;rotatable=0;points=[[0,0.5],[1,0.5]];portConstraint=eastwest;" vertex="1" parent="j4cqbh6B3K3PZ06SUgVI-9">
          <mxGeometry y="26" width="160" height="44" as="geometry" />
        </mxCell>
        <mxCell id="j4cqbh6B3K3PZ06SUgVI-11" value="" style="line;strokeWidth=1;fillColor=none;align=left;verticalAlign=middle;spacingTop=-1;spacingLeft=3;spacingRight=3;rotatable=0;labelPosition=right;points=[];portConstraint=eastwest;" vertex="1" parent="j4cqbh6B3K3PZ06SUgVI-9">
          <mxGeometry y="70" width="160" height="8" as="geometry" />
        </mxCell>
        <mxCell id="j4cqbh6B3K3PZ06SUgVI-29" style="edgeStyle=none;rounded=0;orthogonalLoop=1;jettySize=auto;html=1;entryX=-0.025;entryY=0.824;entryDx=0;entryDy=0;entryPerimeter=0;startArrow=none;startFill=0;endArrow=block;endFill=0;" edge="1" parent="1" source="j4cqbh6B3K3PZ06SUgVI-13" target="j4cqbh6B3K3PZ06SUgVI-22">
          <mxGeometry relative="1" as="geometry" />
        </mxCell>
        <mxCell id="j4cqbh6B3K3PZ06SUgVI-13" value="Employee" style="swimlane;fontStyle=1;align=center;verticalAlign=top;childLayout=stackLayout;horizontal=1;startSize=26;horizontalStack=0;resizeParent=1;resizeParentMax=0;resizeLast=0;collapsible=1;marginBottom=0;" vertex="1" parent="1">
          <mxGeometry x="380" y="350" width="160" height="60" as="geometry" />
        </mxCell>
        <mxCell id="j4cqbh6B3K3PZ06SUgVI-14" value="+ field: type" style="text;strokeColor=none;fillColor=none;align=left;verticalAlign=top;spacingLeft=4;spacingRight=4;overflow=hidden;rotatable=0;points=[[0,0.5],[1,0.5]];portConstraint=eastwest;" vertex="1" parent="j4cqbh6B3K3PZ06SUgVI-13">
          <mxGeometry y="26" width="160" height="26" as="geometry" />
        </mxCell>
        <mxCell id="j4cqbh6B3K3PZ06SUgVI-15" value="" style="line;strokeWidth=1;fillColor=none;align=left;verticalAlign=middle;spacingTop=-1;spacingLeft=3;spacingRight=3;rotatable=0;labelPosition=right;points=[];portConstraint=eastwest;" vertex="1" parent="j4cqbh6B3K3PZ06SUgVI-13">
          <mxGeometry y="52" width="160" height="8" as="geometry" />
        </mxCell>
        <mxCell id="j4cqbh6B3K3PZ06SUgVI-18" value="1" style="text;html=1;align=center;verticalAlign=middle;resizable=0;points=[];autosize=1;strokeColor=none;" vertex="1" parent="1">
          <mxGeometry x="154" y="328" width="20" height="20" as="geometry" />
        </mxCell>
        <mxCell id="j4cqbh6B3K3PZ06SUgVI-19" value="&lt;div&gt;1..*&lt;/div&gt;" style="text;html=1;align=center;verticalAlign=middle;resizable=0;points=[];autosize=1;strokeColor=none;" vertex="1" parent="1">
          <mxGeometry x="149" y="380" width="30" height="20" as="geometry" />
        </mxCell>
        <mxCell id="j4cqbh6B3K3PZ06SUgVI-21" value="Person" style="swimlane;fontStyle=1;align=center;verticalAlign=top;childLayout=stackLayout;horizontal=1;startSize=26;horizontalStack=0;resizeParent=1;resizeParentMax=0;resizeLast=0;collapsible=1;marginBottom=0;" vertex="1" parent="1">
          <mxGeometry x="640" y="280" width="160" height="68" as="geometry" />
        </mxCell>
        <mxCell id="j4cqbh6B3K3PZ06SUgVI-22" value="- id: int" style="text;strokeColor=none;fillColor=none;align=left;verticalAlign=top;spacingLeft=4;spacingRight=4;overflow=hidden;rotatable=0;points=[[0,0.5],[1,0.5]];portConstraint=eastwest;" vertex="1" parent="j4cqbh6B3K3PZ06SUgVI-21">
          <mxGeometry y="26" width="160" height="34" as="geometry" />
        </mxCell>
        <mxCell id="j4cqbh6B3K3PZ06SUgVI-23" value="" style="line;strokeWidth=1;fillColor=none;align=left;verticalAlign=middle;spacingTop=-1;spacingLeft=3;spacingRight=3;rotatable=0;labelPosition=right;points=[];portConstraint=eastwest;" vertex="1" parent="j4cqbh6B3K3PZ06SUgVI-21">
          <mxGeometry y="60" width="160" height="8" as="geometry" />
        </mxCell>
        <mxCell id="j4cqbh6B3K3PZ06SUgVI-30" style="edgeStyle=none;rounded=0;orthogonalLoop=1;jettySize=auto;html=1;entryX=0;entryY=0.5;entryDx=0;entryDy=0;startArrow=none;startFill=0;endArrow=block;endFill=0;" edge="1" parent="1" source="j4cqbh6B3K3PZ06SUgVI-25" target="j4cqbh6B3K3PZ06SUgVI-22">
          <mxGeometry relative="1" as="geometry" />
        </mxCell>
        <mxCell id="j4cqbh6B3K3PZ06SUgVI-47" value="teach" style="edgeStyle=none;rounded=0;orthogonalLoop=1;jettySize=auto;html=1;exitX=0;exitY=0;exitDx=0;exitDy=0;entryX=1.013;entryY=0.719;entryDx=0;entryDy=0;entryPerimeter=0;startArrow=none;startFill=0;endArrow=none;endFill=0;" edge="1" parent="1" source="j4cqbh6B3K3PZ06SUgVI-25" target="j4cqbh6B3K3PZ06SUgVI-2">
          <mxGeometry relative="1" as="geometry" />
        </mxCell>
        <mxCell id="j4cqbh6B3K3PZ06SUgVI-25" value="Professor" style="swimlane;fontStyle=1;align=center;verticalAlign=top;childLayout=stackLayout;horizontal=1;startSize=26;horizontalStack=0;resizeParent=1;resizeParentMax=0;resizeLast=0;collapsible=1;marginBottom=0;" vertex="1" parent="1">
          <mxGeometry x="379" y="240" width="180" height="60" as="geometry" />
        </mxCell>
        <mxCell id="j4cqbh6B3K3PZ06SUgVI-26" value="- professorType: ProfessorType" style="text;strokeColor=none;fillColor=none;align=left;verticalAlign=top;spacingLeft=4;spacingRight=4;overflow=hidden;rotatable=0;points=[[0,0.5],[1,0.5]];portConstraint=eastwest;" vertex="1" parent="j4cqbh6B3K3PZ06SUgVI-25">
          <mxGeometry y="26" width="180" height="26" as="geometry" />
        </mxCell>
        <mxCell id="j4cqbh6B3K3PZ06SUgVI-27" value="" style="line;strokeWidth=1;fillColor=none;align=left;verticalAlign=middle;spacingTop=-1;spacingLeft=3;spacingRight=3;rotatable=0;labelPosition=right;points=[];portConstraint=eastwest;" vertex="1" parent="j4cqbh6B3K3PZ06SUgVI-25">
          <mxGeometry y="52" width="180" height="8" as="geometry" />
        </mxCell>
        <mxCell id="j4cqbh6B3K3PZ06SUgVI-33" style="edgeStyle=none;rounded=0;orthogonalLoop=1;jettySize=auto;html=1;entryX=0.5;entryY=0;entryDx=0;entryDy=0;startArrow=none;startFill=0;endArrow=none;endFill=0;" edge="1" parent="1" source="j4cqbh6B3K3PZ06SUgVI-31" target="j4cqbh6B3K3PZ06SUgVI-25">
          <mxGeometry relative="1" as="geometry" />
        </mxCell>
        <mxCell id="j4cqbh6B3K3PZ06SUgVI-31" value="«enum»&lt;br&gt;&lt;b&gt;ProfessorType&lt;/b&gt;" style="html=1;verticalAlign=middle;" vertex="1" parent="1">
          <mxGeometry x="414" y="160" width="110" height="50" as="geometry" />
        </mxCell>
        <mxCell id="j4cqbh6B3K3PZ06SUgVI-34" style="edgeStyle=none;rounded=0;orthogonalLoop=1;jettySize=auto;html=1;entryX=1;entryY=0.5;entryDx=0;entryDy=0;startArrow=none;startFill=0;endArrow=diamondThin;endFill=1;" edge="1" parent="1" source="j4cqbh6B3K3PZ06SUgVI-26" target="j4cqbh6B3K3PZ06SUgVI-10">
          <mxGeometry relative="1" as="geometry" />
        </mxCell>
        <mxCell id="j4cqbh6B3K3PZ06SUgVI-35" value="1" style="text;html=1;align=center;verticalAlign=middle;resizable=0;points=[];autosize=1;strokeColor=none;" vertex="1" parent="1">
          <mxGeometry x="230" y="270" width="20" height="20" as="geometry" />
        </mxCell>
        <mxCell id="j4cqbh6B3K3PZ06SUgVI-36" value="1..*" style="text;html=1;align=center;verticalAlign=middle;resizable=0;points=[];autosize=1;strokeColor=none;" vertex="1" parent="1">
          <mxGeometry x="349" y="260" width="30" height="20" as="geometry" />
        </mxCell>
        <mxCell id="j4cqbh6B3K3PZ06SUgVI-38" style="edgeStyle=none;rounded=0;orthogonalLoop=1;jettySize=auto;html=1;entryX=1.013;entryY=0.719;entryDx=0;entryDy=0;entryPerimeter=0;startArrow=none;startFill=0;endArrow=diamondThin;endFill=0;exitX=0;exitY=0.5;exitDx=0;exitDy=0;" edge="1" parent="1" source="j4cqbh6B3K3PZ06SUgVI-14" target="j4cqbh6B3K3PZ06SUgVI-6">
          <mxGeometry relative="1" as="geometry" />
        </mxCell>
        <mxCell id="j4cqbh6B3K3PZ06SUgVI-39" value="0..*" style="text;html=1;align=center;verticalAlign=middle;resizable=0;points=[];autosize=1;strokeColor=none;" vertex="1" parent="1">
          <mxGeometry x="345" y="370" width="30" height="20" as="geometry" />
        </mxCell>
        <mxCell id="j4cqbh6B3K3PZ06SUgVI-40" value="1" style="text;html=1;align=center;verticalAlign=middle;resizable=0;points=[];autosize=1;strokeColor=none;" vertex="1" parent="1">
          <mxGeometry x="230" y="440" width="20" height="20" as="geometry" />
        </mxCell>
        <mxCell id="j4cqbh6B3K3PZ06SUgVI-41" value="&lt;&lt;abstract&gt;&gt;&#xa;Sala" style="swimlane;fontStyle=1;align=center;verticalAlign=middle;childLayout=stackLayout;horizontal=1;startSize=30;horizontalStack=0;resizeParent=1;resizeParentMax=0;resizeLast=0;collapsible=1;marginBottom=0;" vertex="1" parent="1">
          <mxGeometry x="-210" y="290" width="160" height="64" as="geometry" />
        </mxCell>
        <mxCell id="j4cqbh6B3K3PZ06SUgVI-42" value="- id: int" style="text;strokeColor=none;fillColor=none;align=left;verticalAlign=top;spacingLeft=4;spacingRight=4;overflow=hidden;rotatable=0;points=[[0,0.5],[1,0.5]];portConstraint=eastwest;" vertex="1" parent="j4cqbh6B3K3PZ06SUgVI-41">
          <mxGeometry y="30" width="160" height="26" as="geometry" />
        </mxCell>
        <mxCell id="j4cqbh6B3K3PZ06SUgVI-43" value="" style="line;strokeWidth=1;fillColor=none;align=left;verticalAlign=middle;spacingTop=-1;spacingLeft=3;spacingRight=3;rotatable=0;labelPosition=right;points=[];portConstraint=eastwest;" vertex="1" parent="j4cqbh6B3K3PZ06SUgVI-41">
          <mxGeometry y="56" width="160" height="8" as="geometry" />
        </mxCell>
        <mxCell id="j4cqbh6B3K3PZ06SUgVI-45" style="edgeStyle=none;rounded=0;orthogonalLoop=1;jettySize=auto;html=1;entryX=1;entryY=0.5;entryDx=0;entryDy=0;startArrow=none;startFill=0;endArrow=block;endFill=0;exitX=0;exitY=0.5;exitDx=0;exitDy=0;" edge="1" parent="1" source="j4cqbh6B3K3PZ06SUgVI-2" target="j4cqbh6B3K3PZ06SUgVI-42">
          <mxGeometry relative="1" as="geometry" />
        </mxCell>
        <mxCell id="j4cqbh6B3K3PZ06SUgVI-46" style="edgeStyle=none;rounded=0;orthogonalLoop=1;jettySize=auto;html=1;entryX=1.019;entryY=0.962;entryDx=0;entryDy=0;entryPerimeter=0;startArrow=none;startFill=0;endArrow=block;endFill=0;exitX=0;exitY=0.5;exitDx=0;exitDy=0;" edge="1" parent="1" source="j4cqbh6B3K3PZ06SUgVI-6" target="j4cqbh6B3K3PZ06SUgVI-42">
          <mxGeometry relative="1" as="geometry" />
        </mxCell>
        <mxCell id="j4cqbh6B3K3PZ06SUgVI-48" value="1..*" style="text;html=1;align=center;verticalAlign=middle;resizable=0;points=[];autosize=1;strokeColor=none;" vertex="1" parent="1">
          <mxGeometry x="225" y="110" width="30" height="20" as="geometry" />
        </mxCell>
        <mxCell id="j4cqbh6B3K3PZ06SUgVI-49" value="0..*" style="text;html=1;align=center;verticalAlign=middle;resizable=0;points=[];autosize=1;strokeColor=none;" vertex="1" parent="1">
          <mxGeometry x="365" y="210" width="30" height="20" as="geometry" />
        </mxCell>
      </root>
    </mxGraphModel>
  </diagram>
</mxfile>
